<svg width="16" height="16" viewBox="0 0 16 16" fill="none" xmlns="http://www.w3.org/2000/svg">
<path d="M8 0.5C3.86675 0.5 0.5 3.86675 0.5 8C0.5 12.1333 3.86675 15.5 8 15.5C12.1333 15.5 15.5 12.1333 15.5 8C15.5 3.86675 12.1333 0.5 8 0.5ZM8 2C11.3226 2 14 4.67741 14 8C14 11.0108 11.799 13.4848 8.91406 13.9238V9.78857H10.6602L10.9341 8.01465H8.91406V7.04492C8.91406 6.30767 9.15424 5.65332 9.84424 5.65332H10.9517V4.10498C10.7567 4.07873 10.3451 4.02148 9.56738 4.02148C7.94288 4.02148 6.99072 4.87948 6.99072 6.83398V8.01465H5.3208V9.78857H6.99072V13.9092C4.15272 13.4306 2 10.9777 2 8C2 4.67741 4.67741 2 8 2Z" fill="#FFF6F6"/>
</svg>
