<svg width="15" height="15" viewBox="0 0 15 15" fill="none" xmlns="http://www.w3.org/2000/svg">
<path d="M3.55405 0.25C1.63998 0.25 0.0827637 1.93225 0.0827637 4V10C0.0827637 12.0677 1.63998 13.75 3.55405 13.75H9.1081C11.0222 13.75 12.5794 12.0677 12.5794 10V4C12.5794 1.93225 11.0222 0.25 9.1081 0.25H3.55405ZM3.55405 1.75H9.1081C10.2564 1.75 11.1909 2.7595 11.1909 4V10C11.1909 11.2405 10.2564 12.25 9.1081 12.25H3.55405C2.40575 12.25 1.47128 11.2405 1.47128 10V4C1.47128 2.7595 2.40575 1.75 3.55405 1.75ZM9.80236 2.5C9.61823 2.5 9.44164 2.57902 9.31144 2.71967C9.18125 2.86032 9.1081 3.05109 9.1081 3.25C9.1081 3.44891 9.18125 3.63968 9.31144 3.78033C9.44164 3.92098 9.61823 4 9.80236 4C9.98649 4 10.1631 3.92098 10.2933 3.78033C10.4235 3.63968 10.4966 3.44891 10.4966 3.25C10.4966 3.05109 10.4235 2.86032 10.2933 2.71967C10.1631 2.57902 9.98649 2.5 9.80236 2.5ZM6.33107 3.25C4.41701 3.25 2.85979 4.93225 2.85979 7C2.85979 9.06775 4.41701 10.75 6.33107 10.75C8.24514 10.75 9.80236 9.06775 9.80236 7C9.80236 4.93225 8.24514 3.25 6.33107 3.25ZM6.33107 4.75C7.47938 4.75 8.41385 5.7595 8.41385 7C8.41385 8.2405 7.47938 9.25 6.33107 9.25C5.18277 9.25 4.2483 8.2405 4.2483 7C4.2483 5.7595 5.18277 4.75 6.33107 4.75Z" fill="#FFF6F6"/>
</svg>
