<svg width="22" height="22" viewBox="0 0 22 22" fill="none" xmlns="http://www.w3.org/2000/svg">
<path d="M6.58048 8.19576C8.06967 11.8274 9.47885 13.3288 12.9409 15.054L11.6013 17.0455C7.61686 14.9127 5.50103 11.6132 4.44688 9.07665L6.58048 8.19576Z" fill="#FFF6F6"/>
<path d="M7.36749 3.36489C8.05227 3.4062 8.60704 4.01858 8.59881 4.67109C8.58586 5.69791 8.70776 6.44719 8.97253 7.38325C9.11797 7.89743 8.88641 8.39527 8.4899 8.70003C7.95545 9.1108 7.56053 9.65258 7.24885 10.1208C6.81686 10.7698 5.19018 10.6166 4.78764 9.85343C3.96037 8.28509 3.2958 5.45094 4.26244 3.62715C4.41428 3.34068 4.74599 3.20672 5.0991 3.22802L7.36749 3.36489Z" fill="#FFF6F6"/>
<path d="M18.4251 15.2879C18.472 14.6415 17.9024 14.0414 17.2163 13.9631C16.1368 13.8398 15.3663 13.6269 14.4186 13.2556C13.8981 13.0516 13.345 13.2027 12.9728 13.5337C12.4711 13.9798 11.8503 14.2781 11.3177 14.5081C10.5795 14.8269 10.5258 16.3698 11.2738 16.8472C12.811 17.8284 15.6984 18.8243 17.7403 18.1599C18.0611 18.0556 18.2454 17.7627 18.2696 17.4294L18.4251 15.2879Z" fill="#FFF6F6"/>
</svg>
