<svg width="16" height="16" viewBox="0 0 16 16" fill="none" xmlns="http://www.w3.org/2000/svg">
<path d="M8.00879 0.5C3.87929 0.5 0.517613 3.85878 0.516113 7.98828C0.515363 9.30828 0.861102 10.5969 1.5166 11.7324L0.5 15.5L4.42432 14.5728C5.51857 15.1698 6.75039 15.4831 8.00439 15.4839H8.00732C12.1361 15.4839 15.4963 12.1244 15.4985 7.9956C15.5 5.99385 14.7216 4.1118 13.3071 2.6958C11.8926 1.28055 10.0128 0.50075 8.00879 0.5ZM8.00732 2C9.60932 2.00075 11.1148 2.62535 12.2466 3.75635C13.3783 4.88885 14 6.39364 13.9985 7.99414C13.997 11.2971 11.3104 13.9839 8.00586 13.9839C7.00611 13.9831 6.0158 13.7321 5.14355 13.2559L4.63818 12.9805L4.08008 13.1123L2.60352 13.4609L2.96387 12.1221L3.12646 11.5215L2.81592 10.9824C2.29242 10.0764 2.01536 9.04053 2.01611 7.98828C2.01761 4.68678 4.70507 2 8.00732 2ZM5.35742 4.53125C5.23217 4.53125 5.02966 4.57812 4.85791 4.76562C4.68616 4.95237 4.20166 5.40468 4.20166 6.32568C4.20166 7.24668 4.87256 8.13696 4.96631 8.26221C5.05931 8.38671 6.26131 10.3364 8.16406 11.0864C9.74506 11.7097 10.0662 11.5867 10.4097 11.5552C10.7532 11.5244 11.5178 11.1033 11.6738 10.666C11.8298 10.2288 11.8302 9.85264 11.7837 9.77539C11.7372 9.69739 11.6123 9.65088 11.4248 9.55713C11.2381 9.46338 10.3177 9.01147 10.146 8.94922C9.97425 8.88697 9.84862 8.85547 9.72412 9.04297C9.59962 9.23047 9.24182 9.65089 9.13232 9.77539C9.02282 9.90064 8.91406 9.91748 8.72656 9.82373C8.53906 9.72923 7.9362 9.53105 7.2207 8.89355C6.6642 8.3978 6.2887 7.78613 6.1792 7.59863C6.07045 7.41188 6.16895 7.30931 6.2627 7.21631C6.3467 7.13231 6.44873 6.99768 6.54248 6.88818C6.63548 6.77868 6.66773 6.70067 6.72998 6.57617C6.79223 6.45167 6.76037 6.3418 6.71387 6.24805C6.66737 6.1543 6.30322 5.22987 6.13672 4.85937C5.99647 4.54812 5.84834 4.54089 5.71484 4.53564C5.60609 4.53114 5.48192 4.53125 5.35742 4.53125Z" fill="#FFF6F6"/>
</svg>
